<?xml version="1.0" standalone="no"?>
<!DOCTYPE svg PUBLIC "-//W3C//DTD SVG 20010904//EN"
 "http://www.w3.org/TR/2001/REC-SVG-20010904/DTD/svg10.dtd">
<svg version="1.0" xmlns="http://www.w3.org/2000/svg"
 width="500.000000pt" height="300.000000pt" viewBox="0 0 500.000000 300.000000"
 preserveAspectRatio="xMidYMid meet">

<g transform="translate(0.000000,300.000000) scale(0.100000,-0.100000)"
fill="#000000" stroke="none">
<path d="M2010 2489 c-47 -10 -132 -23 -190 -29 -236 -24 -375 -67 -456 -142
l-42 -39 -28 24 c-46 39 -91 58 -207 88 -59 16 -145 45 -190 65 -45 19 -87 38
-93 40 -8 4 -16 -18 -23 -59 -14 -81 -1 -155 35 -203 15 -19 24 -37 22 -40 -3
-3 -64 -9 -134 -15 -170 -12 -277 -33 -344 -67 -126 -63 -134 -185 -15 -227
33 -11 39 -17 37 -37 -2 -13 -4 -64 -5 -114 -2 -86 0 -93 27 -128 61 -81 175
-89 249 -18 15 14 27 32 27 39 0 17 9 16 55 -3 21 -8 58 -14 84 -13 39 3 46 0
49 -16 6 -41 26 -65 61 -75 54 -15 807 -12 851 3 26 9 38 20 46 45 13 41 58
87 76 78 7 -4 24 -13 38 -21 35 -20 97 -18 148 5 42 19 42 19 77 -2 54 -31
158 -23 210 16 60 46 84 136 51 195 -10 18 -11 31 -3 52 19 50 -37 109 -102
109 -36 0 -91 -28 -99 -51 -8 -20 -9 -19 -35 14 -47 61 -145 74 -209 27 -40
-29 -46 -18 -19 31 15 27 21 48 17 65 -5 20 0 33 25 57 46 47 98 158 119 256
11 47 20 92 20 99 0 15 -24 14 -130 -9z m60 -52 c0 -27 -31 -129 -51 -170 -12
-23 -39 -61 -61 -83 -36 -38 -43 -41 -79 -37 -44 6 -95 -11 -104 -35 -5 -14
-11 -11 -34 17 -23 28 -36 34 -79 39 -51 4 -53 3 -90 -37 -26 -29 -45 -41 -65
-41 -27 0 -27 0 -13 29 23 44 93 98 155 120 l56 19 -45 1 c-99 2 -190 -37
-260 -110 -26 -27 -51 -49 -57 -49 -5 0 -31 20 -58 45 -27 25 -77 59 -113 76
-66 32 -94 34 -47 3 27 -18 95 -100 95 -115 0 -5 -20 -9 -44 -9 -43 0 -44 1
-50 39 -4 29 -15 46 -37 62 -41 29 -120 37 -138 15 -7 -9 -19 -16 -26 -16 -17
0 -75 76 -86 113 -10 35 -12 101 -4 109 4 3 36 -7 73 -22 37 -16 116 -41 175
-56 123 -30 172 -60 215 -130 32 -50 34 -49 70 21 50 97 174 149 422 175 58 7
137 17 175 24 95 18 105 18 105 3z m-999 -253 c11 -10 19 -31 19 -50 0 -73
-101 -100 -261 -70 -47 9 -107 16 -132 16 -45 0 -47 -1 -47 -27 0 -16 -7 -49
-15 -75 -12 -41 -12 -48 0 -48 8 0 18 8 24 18 15 25 45 3 49 -36 4 -37 -27
-62 -75 -62 -39 0 -56 -28 -57 -94 0 -30 5 -43 26 -60 24 -19 26 -24 15 -46
-31 -62 -121 -66 -158 -7 -24 38 -21 88 10 160 l20 47 -21 0 c-21 0 -21 0 2
25 13 13 31 27 40 30 15 5 80 131 80 156 0 25 -133 -18 -144 -47 -3 -8 8 -30
25 -49 l31 -35 -28 -2 c-129 -8 -185 33 -138 100 38 55 148 85 374 102 155 11
226 28 256 61 22 24 74 21 105 -7z m629 -54 c22 -22 25 -36 11 -44 -21 -14
-73 -174 -78 -243 -5 -67 -4 -73 13 -73 30 0 81 71 98 136 18 69 46 98 85 89
42 -10 58 -31 43 -55 -16 -26 -39 -130 -34 -152 9 -44 69 4 121 96 32 58 71
86 116 86 29 0 75 -40 75 -65 0 -44 -62 -90 -111 -83 -20 3 -24 -1 -24 -26 0
-20 6 -31 20 -36 27 -10 95 13 117 41 10 11 37 31 60 43 42 21 46 26 67 79 12
31 50 37 76 11 14 -15 14 -17 0 -28 -15 -11 -14 -17 5 -69 33 -88 10 -145 -66
-166 -53 -14 -91 -3 -123 36 l-29 35 -47 -36 c-82 -63 -165 -40 -165 47 l0 40
-33 -42 c-37 -47 -83 -81 -109 -81 -30 0 -58 37 -58 76 0 42 -11 41 -42 -5
-54 -80 -106 -89 -136 -23 -9 21 -17 39 -19 41 -1 2 -16 -14 -34 -34 -56 -63
-108 -66 -130 -8 -7 18 -14 23 -27 18 -9 -3 -36 -10 -60 -14 -23 -5 -51 -16
-62 -26 -24 -22 -92 -31 -128 -16 -16 7 -35 23 -43 37 -8 16 -18 23 -28 19 -9
-4 -34 -10 -56 -14 -22 -4 -56 -18 -75 -29 -50 -31 -119 -30 -154 3 -61 57
-15 203 85 264 46 28 121 29 149 1 36 -36 37 -70 3 -173 -13 -41 29 -1 73 69
53 86 89 119 144 134 43 12 93 -2 118 -33 24 -29 25 -81 4 -131 -16 -34 -18
-46 -8 -46 18 0 60 57 75 101 6 19 27 51 47 70 29 28 43 34 79 34 l43 0 12 54
c21 94 92 139 140 91z m192 -17 c39 -35 11 -103 -43 -103 -34 0 -63 37 -53 66
19 52 61 69 96 37z m-948 -505 c5 -10 7 -10 12 0 10 22 24 12 24 -18 0 -30
-14 -40 -24 -17 -5 10 -7 10 -12 0 -10 -23 -24 -13 -24 17 0 30 14 40 24 18z
m103 5 c-18 -5 -18 -5 0 -19 17 -13 17 -13 -2 -14 l-20 -1 20 -9 c18 -8 17 -9
-7 -9 -25 -1 -28 3 -28 29 0 26 3 30 28 29 18 -1 21 -3 9 -6z m93 -19 c6 -14
10 -26 10 -28 0 -1 -15 -2 -34 -2 -32 0 -33 1 -24 28 12 35 35 36 48 2z m60 2
c0 -13 6 -27 13 -29 6 -3 0 -6 -15 -6 -25 -1 -28 3 -28 29 0 20 5 30 15 30 9
0 15 -9 15 -24z m88 17 c-11 -3 -19 -15 -19 -31 l-2 -27 -4 25 c-3 14 -10 28
-17 32 -6 4 5 7 24 7 19 -1 27 -3 18 -6z m83 -6 c-6 -6 -11 -19 -11 -29 0 -10
-7 -18 -15 -18 -8 0 -15 8 -15 18 0 10 -5 23 -10 28 -7 7 2 10 26 11 26 1 33
-2 25 -10z m101 6 c-22 -4 -23 -5 -5 -18 16 -13 16 -14 1 -15 -9 0 -19 -6 -21
-12 -3 -7 -6 2 -6 20 -1 29 2 32 27 31 24 -2 25 -2 4 -6z m108 -8 c17 -20 -3
-45 -37 -45 -25 0 -39 20 -29 45 3 8 16 15 29 15 14 0 30 -7 37 -15z m105 -5
c9 -28 -2 -40 -35 -40 -33 0 -44 12 -35 40 4 14 15 20 35 20 20 0 31 -6 35
-20z m79 14 c9 -3 16 -14 16 -24 0 -19 -19 -30 -51 -30 -14 0 -19 7 -19 30 0
31 17 38 54 24z"/>
<path d="M1201 1936 c-19 -22 -24 -78 -10 -111 l12 -30 20 63 c17 56 17 66 5
78 -13 13 -16 13 -27 0z"/>
<path d="M872 1928 c-17 -22 -24 -59 -17 -94 9 -51 30 -42 44 19 15 70 1 109
-27 75z"/>
<path d="M1483 1912 c-17 -11 -43 -76 -43 -107 0 -34 26 -43 52 -17 26 26 39
132 17 132 -8 0 -19 -4 -26 -8z"/>
<path d="M2056 1894 c-21 -21 -20 -34 3 -34 22 0 45 25 36 40 -9 14 -21 13
-39 -6z"/>
<path d="M2252 1810 c-21 -28 -21 -29 -2 -35 27 -9 40 1 40 30 0 36 -14 38
-38 5z"/>
<path d="M1127 1756 c-3 -8 0 -21 6 -30 10 -14 15 -15 29 -4 16 12 15 14 -7
30 -19 14 -24 15 -28 4z"/>
<path d="M800 1741 c0 -24 18 -37 32 -23 8 8 7 16 -2 27 -17 21 -30 19 -30 -4z"/>
<path d="M1534 1599 c-10 -17 13 -36 27 -22 12 12 4 33 -11 33 -5 0 -12 -5
-16 -11z"/>
<path d="M1634 1599 c-10 -17 13 -36 27 -22 12 12 4 33 -11 33 -5 0 -12 -5
-16 -11z"/>
<path d="M1730 1590 c0 -13 5 -20 13 -17 6 2 12 10 12 17 0 7 -6 15 -12 18 -8
2 -13 -5 -13 -18z"/>
<path d="M3471 2106 c2 -2 27 -11 56 -19 41 -12 51 -13 47 -2 -3 7 -22 15 -42
19 -43 7 -67 8 -61 2z"/>
<path d="M3675 2090 c3 -5 8 -10 11 -10 2 0 4 5 4 10 0 6 -5 10 -11 10 -5 0
-7 -4 -4 -10z"/>
<path d="M3833 2093 c9 -2 25 -2 35 0 9 3 1 5 -18 5 -19 0 -27 -2 -17 -5z"/>
<path d="M3262 1595 c0 -16 2 -24 5 -17 2 6 13 12 23 12 10 0 21 -6 23 -12 3
-7 5 1 5 17 0 17 -2 24 -5 18 -2 -7 -13 -13 -23 -13 -10 0 -21 6 -23 13 -3 6
-5 -1 -5 -18z"/>
<path d="M3354 1595 c0 -29 2 -30 22 -10 12 12 12 15 2 15 -10 0 -9 3 2 10 12
8 11 10 -5 10 -16 0 -21 -6 -21 -25z"/>
<path d="M3440 1611 c0 -5 -2 -15 -5 -23 -4 -9 4 -13 24 -14 27 -1 28 1 19 22
-11 23 -38 34 -38 15z"/>
<path d="M3520 1595 c0 -14 4 -25 9 -25 4 0 6 11 3 25 -2 14 -6 25 -8 25 -2 0
-4 -11 -4 -25z"/>
<path d="M3598 1595 c2 -14 6 -25 7 -25 1 0 5 11 7 25 3 16 1 25 -7 25 -8 0
-10 -9 -7 -25z"/>
<path d="M3673 1592 c10 -22 12 -22 18 -5 11 27 11 29 -10 29 -16 0 -17 -4 -8
-24z"/>
<path d="M3780 1593 c0 -16 4 -23 8 -17 4 6 14 14 22 17 11 4 10 6 -5 7 l-20
1 20 9 c19 8 19 9 -2 9 -19 1 -23 -4 -23 -26z"/>
<path d="M3854 1606 c-7 -18 3 -36 19 -35 9 0 9 2 0 6 -23 9 -14 33 12 33 25
0 35 -23 15 -33 -6 -3 -5 -4 2 -3 7 2 13 11 13 22 0 24 -52 33 -61 10z"/>
<path d="M3960 1595 c0 -14 4 -25 9 -25 5 0 7 9 4 20 -4 15 0 20 15 20 28 0
36 -16 15 -29 -16 -9 -16 -10 -2 -11 9 0 19 6 21 13 9 23 -4 37 -33 37 -24 0
-29 -4 -29 -25z"/>
<path d="M4050 1595 c0 -23 4 -26 28 -23 19 2 27 9 27 23 0 14 -8 21 -27 23
-24 3 -28 0 -28 -23z m50 0 c0 -8 -9 -15 -20 -15 -11 0 -20 7 -20 15 0 8 9 15
20 15 11 0 20 -7 20 -15z"/>
<path d="M3307 1123 c-4 -3 -7 -11 -7 -17 0 -6 5 -5 12 2 6 6 9 14 7 17 -3 3
-9 2 -12 -2z"/>
<path d="M3931 1046 c-19 -23 -61 -138 -49 -134 6 2 16 22 23 44 6 21 19 54
29 72 17 34 16 41 -3 18z"/>
<path d="M4147 1032 c-20 -22 -22 -83 -5 -100 18 -18 73 -15 89 6 13 15 12 16
-3 4 -25 -20 -60 -11 -78 21 -14 25 -13 30 2 57 20 34 18 38 -5 12z"/>
<path d="M3015 1000 c-16 -7 -11 -9 20 -9 22 -1 75 -8 118 -16 112 -21 194
-20 235 5 43 27 41 32 -5 9 -44 -23 -94 -24 -199 -5 -128 23 -148 25 -169 16z"/>
<path d="M2687 966 c-27 -25 -37 -42 -37 -65 0 -46 44 -66 139 -64 51 1 70 -2
60 -9 -12 -8 -12 -9 1 -6 14 4 70 101 85 148 7 22 5 23 -31 17 -43 -6 -99 -25
-93 -32 3 -2 23 2 44 10 65 23 67 21 41 -47 l-23 -63 -68 -3 c-139 -7 -182 49
-94 122 17 14 27 26 22 26 -5 0 -26 -15 -46 -34z"/>
<path d="M3454 876 c-21 -18 -55 -61 -74 -95 -19 -35 -39 -60 -46 -57 -7 3
-14 -4 -17 -15 -4 -15 -2 -17 12 -9 23 12 62 64 90 117 11 23 38 54 58 68 21
14 33 25 27 25 -6 0 -28 -15 -50 -34z"/>
<path d="M4102 897 c-6 -7 -16 -35 -23 -62 -12 -51 -59 -129 -81 -138 -9 -4
-9 -6 -1 -6 22 -2 82 84 93 133 6 27 15 57 21 67 11 22 6 25 -9 6z"/>
<path d="M3753 868 c-11 -13 -34 -50 -49 -82 -16 -33 -37 -61 -46 -64 -18 -4
-25 -22 -10 -22 17 0 60 56 81 105 12 27 29 57 38 67 9 10 14 18 11 18 -2 0
-14 -10 -25 -22z"/>
<path d="M2980 865 c0 -8 4 -15 9 -15 5 0 11 7 15 15 3 9 0 15 -9 15 -8 0 -15
-7 -15 -15z"/>
<path d="M3106 841 c-25 -26 -43 -58 -57 -101 -19 -61 -19 -63 0 -105 16 -37
26 -45 60 -55 44 -12 112 0 141 25 8 6 37 17 63 24 47 11 50 11 72 -13 13 -14
35 -28 50 -32 40 -10 113 1 135 21 11 10 40 21 65 26 44 8 48 7 72 -21 35 -42
72 -40 123 6 22 20 40 32 40 27 0 -6 11 -22 25 -37 32 -35 67 -33 107 4 17 17
27 30 22 30 -5 0 -17 -9 -27 -20 -10 -12 -29 -20 -47 -20 -25 0 -33 6 -47 38
-10 20 -19 39 -20 41 -2 2 -22 -15 -45 -37 -62 -61 -91 -58 -133 16 -5 8 -114
-25 -138 -41 -18 -12 -46 -20 -79 -20 -46 -1 -54 3 -78 31 -27 33 -27 33 -76
21 -27 -6 -72 -22 -99 -35 -54 -26 -80 -29 -118 -15 -43 16 -57 39 -57 91 0
62 12 93 56 147 44 53 40 55 -10 4z"/>
<path d="M4323 848 c-17 -18 -38 -46 -46 -63 -8 -16 -30 -45 -49 -64 -25 -26
-28 -31 -10 -22 13 7 35 30 50 52 15 22 42 60 59 85 39 52 38 56 -4 12z"/>
<path d="M3544 859 c-5 -8 -3 -9 6 -4 10 6 12 -3 7 -46 -3 -30 -9 -63 -13 -73
-5 -12 -4 -17 3 -13 14 9 36 89 31 117 -3 27 -22 37 -34 19z"/>
<path d="M4616 854 c-9 -8 -16 -23 -16 -32 0 -8 -10 -27 -22 -41 -19 -21 -17
-20 10 3 17 17 32 37 32 46 0 9 5 21 12 28 7 7 9 12 6 12 -4 0 -14 -7 -22 -16z"/>
<path d="M3215 850 c-3 -5 1 -10 11 -10 14 0 15 -7 10 -42 -4 -24 -11 -47 -17
-52 -12 -13 -12 -36 0 -36 14 0 31 58 31 106 0 32 -4 44 -14 44 -8 0 -18 -4
-21 -10z"/>
<path d="M3836 841 c-4 -5 -1 -11 6 -13 25 -9 5 -110 -26 -130 -8 -6 -7 -8 1
-8 17 0 42 39 49 77 10 54 -11 105 -30 74z"/>
<path d="M4399 813 c-13 -16 -12 -17 3 -4 15 11 19 11 24 -4 5 -13 9 -14 15
-4 18 30 -20 40 -42 12z"/>
<path d="M2803 798 c-30 -34 -36 -57 -12 -51 19 5 19 5 -1 -38 -24 -53 -26
-126 -4 -157 38 -55 114 -64 161 -20 39 37 30 48 -39 49 -35 1 -74 4 -88 8
-22 7 -25 12 -22 50 1 23 11 65 21 92 l19 50 -21 -7 c-21 -6 -21 -6 -4 20 21
32 17 34 -10 4z"/>
<path d="M3028 785 c-3 -3 -25 -9 -49 -14 -44 -9 -44 -9 -8 -10 19 -1 44 6 55
14 10 8 16 15 13 15 -3 0 -8 -2 -11 -5z"/>
<path d="M4457 763 c-11 -11 -33 -18 -57 -18 -22 0 -40 -3 -40 -7 0 -19 70 -7
97 17 15 13 26 25 23 25 -3 0 -13 -8 -23 -17z"/>
<path d="M4515 752 c-5 -4 -19 -18 -30 -32 -16 -21 -14 -20 13 4 29 27 37 36
30 36 -2 0 -7 -4 -13 -8z"/>
<path d="M4617 753 c-8 -13 3 -53 14 -53 11 0 11 31 0 49 -5 7 -11 9 -14 4z"/>
<path d="M4042 674 c-7 -14 -8 -23 -3 -20 5 3 14 -8 21 -25 29 -69 117 -63
167 12 16 23 15 23 -13 -2 -71 -64 -116 -59 -135 16 -13 51 -21 56 -37 19z"/>
<path d="M4253 689 c-7 -7 -4 -23 10 -54 34 -73 104 -81 182 -21 l33 26 35
-35 c29 -29 42 -35 76 -35 45 0 89 18 111 46 11 12 6 11 -20 -5 -63 -38 -148
-23 -171 30 -13 33 -24 36 -38 11 -12 -22 -90 -62 -123 -62 -29 0 -68 38 -68
66 0 29 -14 46 -27 33z"/>
<path d="M3474 677 c-7 -20 3 -37 21 -37 23 0 26 16 5 35 -18 16 -20 16 -26 2z"/>
<path d="M3150 655 c0 -15 6 -25 14 -25 22 0 30 19 16 35 -18 22 -30 18 -30
-10z"/>
<path d="M942 515 c0 -16 2 -22 5 -12 2 9 2 23 0 30 -3 6 -5 -1 -5 -18z"/>
<path d="M972 515 c0 -16 2 -22 5 -12 2 9 2 23 0 30 -3 6 -5 -1 -5 -18z"/>
<path d="M1020 510 c0 -25 4 -30 23 -29 16 1 18 2 5 6 -10 2 -18 9 -18 14 0 5
8 9 18 10 14 0 14 2 -3 8 -19 8 -18 9 5 13 25 5 25 5 -2 7 -25 1 -28 -3 -28
-29z"/>
<path d="M1116 531 c-4 -5 0 -12 6 -14 8 -4 7 -6 -3 -6 -9 -1 -19 -8 -23 -16
-4 -13 -2 -14 14 -5 11 6 25 8 30 5 11 -7 13 6 4 29 -7 18 -20 21 -28 7z"/>
<path d="M1191 513 c-1 -28 2 -33 22 -32 15 1 17 3 5 6 -9 2 -19 16 -21 31 -4
24 -4 24 -6 -5z"/>
<path d="M1256 532 c7 -4 14 -18 16 -32 3 -23 4 -22 9 8 5 27 3 32 -15 32 -13
0 -17 -3 -10 -8z"/>
<path d="M1331 530 c0 -3 3 -12 7 -22 6 -14 9 -13 23 5 15 21 15 22 -7 22 -13
0 -24 -2 -23 -5z"/>
<path d="M1450 508 c0 -34 6 -35 12 -3 1 11 10 23 18 27 11 5 9 7 -7 7 -19 1
-23 -4 -23 -31z"/>
<path d="M1524 525 c-10 -25 22 -53 44 -39 9 6 17 20 17 30 0 25 -52 33 -61 9z
m51 -15 c0 -22 -39 -19 -43 3 -3 15 1 18 20 15 12 -2 23 -10 23 -18z"/>
<path d="M1624 525 c-10 -24 19 -49 45 -40 16 5 21 13 19 28 -4 28 -55 37 -64
12z m56 -10 c0 -9 -7 -18 -16 -22 -18 -7 -39 11 -30 26 11 17 46 13 46 -4z"/>
<path d="M1730 510 c0 -33 19 -40 40 -15 16 20 5 45 -20 45 -16 0 -20 -7 -20
-30z m38 3 c-5 -25 -28 -28 -28 -4 0 12 6 21 16 21 9 0 14 -7 12 -17z"/>
<path d="M3270 516 c0 -22 3 -27 11 -19 8 8 8 16 0 30 -9 16 -10 14 -11 -11z"/>
<path d="M3307 527 c-3 -7 -2 -19 3 -26 5 -10 8 -9 13 2 3 7 2 19 -3 26 -5 10
-8 9 -13 -2z"/>
<path d="M3360 510 c0 -25 4 -30 23 -29 16 1 18 2 5 6 -10 2 -18 8 -18 13 0 5
8 11 18 13 14 4 14 5 -3 7 l-20 1 20 9 c19 8 19 9 -2 9 -19 1 -23 -4 -23 -29z"/>
<path d="M3441 510 c-9 -27 -8 -29 7 -21 10 6 23 6 34 0 15 -8 16 -6 7 21 -14
38 -34 38 -48 0z m36 4 c-3 -3 -12 -4 -19 -1 -8 3 -5 6 6 6 11 1 17 -2 13 -5z"/>
<path d="M3531 513 c-1 -28 2 -33 22 -32 15 1 17 3 5 6 -9 2 -19 16 -21 31 -4
24 -4 24 -6 -5z"/>
<path d="M3596 532 c7 -4 14 -18 16 -32 3 -23 4 -22 9 8 5 27 3 32 -15 32 -13
0 -17 -3 -10 -8z"/>
<path d="M3671 530 c0 -3 3 -12 7 -22 6 -14 9 -13 24 7 17 22 17 23 -7 21 -14
0 -25 -3 -24 -6z"/>
<path d="M3790 508 c0 -34 6 -35 12 -3 1 11 10 23 18 27 11 5 9 7 -7 7 -19 1
-23 -4 -23 -31z"/>
<path d="M3867 533 c-14 -14 -6 -42 14 -48 26 -8 54 16 46 39 -6 16 -48 22
-60 9z m48 -23 c0 -22 -39 -19 -43 3 -3 15 1 18 20 15 12 -2 23 -10 23 -18z"/>
<path d="M3966 524 c-9 -25 16 -48 43 -39 16 5 21 13 19 28 -4 28 -52 36 -62
11z m54 -9 c0 -9 -7 -18 -16 -22 -18 -7 -39 11 -30 26 11 17 46 13 46 -4z"/>
<path d="M4070 510 c0 -33 19 -40 40 -15 16 20 5 45 -20 45 -16 0 -20 -7 -20
-30z m38 3 c-5 -25 -28 -28 -28 -4 0 12 6 21 16 21 9 0 14 -7 12 -17z"/>
</g>
</svg>
